<svg xmlns="http://www.w3.org/2000/svg" xmlns:xlink="http://www.w3.org/1999/xlink" width="290" height="290" viewBox="0 0 290 290"><defs><style>.a{fill:#ffc904;}.a,.b{stroke:#000;stroke-width:8px;}.b{fill:#bd5aec;opacity:0.8;}.c{stroke:none;}.d{fill:none;}.e{filter:url(#a);}</style><filter id="a" x="0" y="0" width="290" height="290" filterUnits="userSpaceOnUse"><feOffset dx="10" dy="10" input="SourceAlpha"/><feGaussianBlur result="b"/><feFlood/><feComposite operator="in" in2="b"/><feComposite in="SourceGraphic"/></filter></defs><g class="e" transform="matrix(1, 0, 0, 1, 0, 0)"><g class="a"><circle class="c" cx="140" cy="140" r="140"/><circle class="d" cx="140" cy="140" r="136"/></g></g><path class="b" d="M16,30H2v98a14.041,14.041,0,0,0,14,14h98V128H16ZM128,2H44A14.041,14.041,0,0,0,30,16v84a14.041,14.041,0,0,0,14,14h84a14.041,14.041,0,0,0,14-14V16A14.041,14.041,0,0,0,128,2Zm-7,63H51V51h70ZM93,93H51V79H93Zm28-56H51V23h70Z" transform="translate(68.5 68.5)"/></svg>