<svg xmlns="http://www.w3.org/2000/svg" xmlns:xlink="http://www.w3.org/1999/xlink" width="290" height="290" viewBox="0 0 290 290"><defs><style>.a{fill:#ffc904;}.a,.b{stroke:#000;stroke-width:8px;}.b{fill:#ff5e5e;opacity:0.8;}.c{stroke:none;}.d{fill:none;}.e{filter:url(#a);}</style><filter id="a" x="0" y="0" width="290" height="290" filterUnits="userSpaceOnUse"><feOffset dx="10" dy="10" input="SourceAlpha"/><feGaussianBlur result="b"/><feFlood/><feComposite operator="in" in2="b"/><feComposite in="SourceGraphic"/></filter></defs><g class="e" transform="matrix(1, 0, 0, 1, 0, 0)"><g class="a"><circle class="c" cx="140" cy="140" r="140"/><circle class="d" cx="140" cy="140" r="136"/></g></g><path class="b" d="M74,27.25V1L39,36,74,71V44.75a52.542,52.542,0,0,1,52.5,52.5,51.367,51.367,0,0,1-6.125,24.5l12.775,12.775A69.877,69.877,0,0,0,74,27.25Zm0,122.5a52.542,52.542,0,0,1-52.5-52.5,51.367,51.367,0,0,1,6.125-24.5L14.85,59.975A69.877,69.877,0,0,0,74,167.25V193.5l35-35-35-35Z" transform="translate(66.5 42.5)"/></svg>