<svg xmlns="http://www.w3.org/2000/svg" xmlns:xlink="http://www.w3.org/1999/xlink" width="290" height="290" viewBox="0 0 290 290"><defs><style>.a{fill:#ffc904;stroke:#000;}.a,.b{stroke-width:8px;}.b{fill:#21a194;stroke:#030303;opacity:0.8;}.c{stroke:none;}.d{fill:none;}.e{filter:url(#a);}</style><filter id="a" x="0" y="0" width="290" height="290" filterUnits="userSpaceOnUse"><feOffset dx="10" dy="10" input="SourceAlpha"/><feGaussianBlur result="b"/><feFlood/><feComposite operator="in" in2="b"/><feComposite in="SourceGraphic"/></filter></defs><g class="e" transform="matrix(1, 0, 0, 1, 0, 0)"><g class="a"><circle class="c" cx="140" cy="140" r="140"/><circle class="d" cx="140" cy="140" r="136"/></g></g><path class="b" d="M73,164.333a70.006,70.006,0,0,0,70-70A70.006,70.006,0,0,0,73,164.333ZM23.222,72.944A19.465,19.465,0,0,0,53.711,88.967l-.156,1.478a19.444,19.444,0,0,0,38.889,0l-.156-1.478a19.167,19.167,0,0,0,11.044,3.422,19.4,19.4,0,0,0,8.322-36.944A19.418,19.418,0,1,0,92.289,21.922l.156-1.478a19.444,19.444,0,1,0-38.889,0l.156,1.478A19.167,19.167,0,0,0,42.667,18.5a19.4,19.4,0,0,0-8.322,36.944,19.376,19.376,0,0,0-11.122,17.5ZM73,36A19.444,19.444,0,1,1,53.556,55.444,19.452,19.452,0,0,1,73,36ZM3,94.333a70.006,70.006,0,0,0,70,70A70.006,70.006,0,0,0,3,94.333Z" transform="translate(67.5 57.5)"/></svg>