<svg xmlns="http://www.w3.org/2000/svg" width="22" height="22" viewBox="0 0 22 22"><path d="M22.136,6.618A1.8,1.8,0,0,0,20.429,5.4H17.424V3H10.212V5.4H7.207A1.808,1.808,0,0,0,5.5,6.618L3,13.818v9.616a1.206,1.206,0,0,0,1.2,1.2H5.4a1.206,1.206,0,0,0,1.2-1.2v-1.2H21.03v1.2a1.206,1.206,0,0,0,1.2,1.2h1.2a1.206,1.206,0,0,0,1.2-1.2V13.818ZM7.207,18.626a1.8,1.8,0,1,1,1.8-1.8A1.8,1.8,0,0,1,7.207,18.626Zm13.222,0a1.8,1.8,0,1,1,1.8-1.8A1.8,1.8,0,0,1,20.429,18.626ZM5.4,12.616l1.8-5.409H20.429l1.8,5.409Z" transform="translate(-3 -3)"/></svg>