<svg xmlns="http://www.w3.org/2000/svg" xmlns:xlink="http://www.w3.org/1999/xlink" width="1787" height="526" viewBox="0 0 1787 526"><defs><style>.a{fill:#cbfffa;}.b,.c{stroke:none;}.c{fill:#000;}.d{filter:url(#a);}</style><filter id="a" x="0" y="0" width="1787" height="526" filterUnits="userSpaceOnUse"><feOffset dx="10" dy="10" input="SourceAlpha"/><feGaussianBlur result="b"/><feFlood/><feComposite operator="in" in2="b"/><feComposite in="SourceGraphic"/></filter></defs><g class="d" transform="matrix(1, 0, 0, 1, 0, 0)"><g class="a"><path class="b" d="M 1746.983032226562 513.5 L 1172.659912109375 513.5 L 30.01689529418945 513.5 C 26.31841659545898 513.5 22.73080825805664 512.7345581054688 19.35319900512695 511.2247924804688 C 16.0799388885498 509.7617492675781 13.13754749298096 507.6643371582031 10.60754776000977 504.9906616210938 C 8.068417549133301 502.3074035644531 6.074069499969482 499.1806640625 4.679938793182373 495.6971740722656 C 3.233417272567749 492.0830383300781 2.49993896484375 488.2413024902344 2.49993896484375 484.2786865234375 L 2.49993896484375 31.72130393981934 C 2.49993896484375 27.75869560241699 3.233417272567749 23.91695594787598 4.679938793182373 20.30282592773438 C 6.074069499969482 16.8193473815918 8.068417549133301 13.69260883331299 10.60754776000977 11.00934791564941 C 13.13754749298096 8.335652351379395 16.0799388885498 6.238260746002197 19.35319900512695 4.775217533111572 C 22.73080825805664 3.265434741973877 26.31841659545898 2.5 30.01689529418945 2.5 L 1746.983032226562 2.5 C 1750.681518554688 2.5 1754.269287109375 3.265434741973877 1757.646850585938 4.775217533111572 C 1760.919921875 6.238260746002197 1763.8623046875 8.335652351379395 1766.392333984375 11.00934791564941 C 1768.931518554688 13.69260883331299 1770.92578125 16.8193473815918 1772.320190429688 20.30282592773438 C 1773.766479492188 23.91695594787598 1774.499877929688 27.75869560241699 1774.499877929688 31.72130393981934 L 1774.499877929688 484.2786865234375 C 1774.499877929688 488.2413024902344 1773.766479492188 492.0830383300781 1772.320190429688 495.6971740722656 C 1770.92578125 499.1806640625 1768.931518554688 502.3074035644531 1766.392333984375 504.9906616210938 C 1763.8623046875 507.6643371582031 1760.919921875 509.7617492675781 1757.646850585938 511.2247924804688 C 1754.269287109375 512.7345581054688 1750.681518554688 513.5 1746.983032226562 513.5 Z"/><path class="c" d="M 30.0167236328125 5 C 26.6722412109375 5 23.4276123046875 5.6922607421875 20.373291015625 7.0574951171875 C 17.4012451171875 8.385894775390625 14.7265625 10.29364013671875 12.42333984375 12.72750854492188 C 10.1019287109375 15.180908203125 8.2774658203125 18.04226684570312 7.0008544921875 21.2318115234375 C 5.673095703125 24.54910278320312 4.9998779296875 28.07818603515625 4.9998779296875 31.72137451171875 L 4.9998779296875 484.2786254882812 C 4.9998779296875 487.9218139648438 5.673095703125 491.4508972167969 7.0008544921875 494.7681884765625 C 8.2774658203125 497.9577331542969 10.1019287109375 500.819091796875 12.42333984375 503.2724914550781 C 14.7265625 505.7063598632812 17.4012451171875 507.6141052246094 20.373291015625 508.9425048828125 C 23.4276123046875 510.3077392578125 26.6722412109375 511 30.0167236328125 511 L 1746.98291015625 511 C 1750.327392578125 511 1753.572265625 510.3077392578125 1756.626586914062 508.9425048828125 C 1759.5986328125 507.6141052246094 1762.273315429688 505.7063598632812 1764.576538085938 503.2724914550781 C 1766.898071289062 500.819091796875 1768.722412109375 497.9577331542969 1769.9990234375 494.7681884765625 C 1771.326782226562 491.4508972167969 1772 487.9218139648438 1772 484.2786254882812 L 1772 31.72137451171875 C 1772 28.07818603515625 1771.326782226562 24.54910278320312 1769.9990234375 21.2318115234375 C 1768.722412109375 18.04226684570312 1766.898071289062 15.180908203125 1764.576538085938 12.72750854492188 C 1762.273315429688 10.29364013671875 1759.5986328125 8.385894775390625 1756.626586914062 7.0574951171875 C 1753.572265625 5.6922607421875 1750.327392578125 5 1746.98291015625 5 L 30.0167236328125 5 M 30.0167236328125 0 L 1746.98291015625 0 C 1763.56103515625 0 1777 14.20205688476562 1777 31.72137451171875 L 1777 484.2786254882812 C 1777 501.7979431152344 1763.56103515625 516 1746.98291015625 516 L 30.0167236328125 516 C 13.4390869140625 516 -0.0001220703125 501.7979431152344 -0.0001220703125 484.2786254882812 L -0.0001220703125 31.72137451171875 C -0.0001220703125 14.20205688476562 13.4390869140625 0 30.0167236328125 0 Z"/></g></g></svg>