<svg xmlns="http://www.w3.org/2000/svg" width="1778" height="105" viewBox="0 0 1778 105"><defs><style>.a{fill:#ffc904;}.b,.c{stroke:none;}.c{fill:#000;}</style></defs><g class="a"><path class="b" d="M 1775.5 102.5 L 2.50006103515625 102.5 L 2.50006103515625 30 C 2.50006103515625 26.28652191162109 3.227234840393066 22.6856517791748 4.661148071289062 19.29695701599121 C 6.047017574310303 16.02260780334473 8.031147956848145 13.08152198791504 10.55897426605225 10.55500030517578 C 13.08701801300049 8.028696060180664 16.03006172180176 6.045217514038086 19.30636596679688 4.66021728515625 C 22.69745254516602 3.226739168167114 26.30093002319336 2.5 30.01701736450195 2.5 L 1747.983154296875 2.5 C 1751.69921875 2.5 1755.302856445312 3.226739168167114 1758.693725585938 4.66021728515625 C 1761.970336914062 6.045217514038086 1764.913330078125 8.028696060180664 1767.441162109375 10.55500030517578 C 1769.968994140625 13.08152198791504 1771.953369140625 16.02260780334473 1773.338989257812 19.29695701599121 C 1774.772827148438 22.6856517791748 1775.5 26.28652191162109 1775.5 30 L 1775.5 102.5 Z"/><path class="c" d="M 30.016845703125 5 C 26.6370849609375 5 23.3609619140625 5.660453796386719 20.27978515625 6.96295166015625 C 17.3011474609375 8.2220458984375 14.625244140625 10.02545166015625 12.326171875 12.32318115234375 C 10.02734375 14.62091064453125 8.2230224609375 17.29499816894531 6.9635009765625 20.2713623046875 C 5.6607666015625 23.34999847412109 5.0001220703125 26.62318420410156 5.0001220703125 30 L 5.0001220703125 100 L 1773 100 L 1773 30 C 1773 26.62318420410156 1772.33935546875 23.34999847412109 1771.03662109375 20.2713623046875 C 1769.777099609375 17.29499816894531 1767.972778320312 14.62091064453125 1765.673950195312 12.32318115234375 C 1763.374877929688 10.02545166015625 1760.69873046875 8.2220458984375 1757.720336914062 6.96295166015625 C 1754.638916015625 5.660453796386719 1751.363037109375 5 1747.983032226562 5 L 30.016845703125 5 M 30.016845703125 0 L 1747.983032226562 0 C 1764.561157226562 0 1778 13.43136596679688 1778 30 L 1778 105 L 0.0001220703125 105 L 0.0001220703125 30 C 0.0001220703125 13.43136596679688 13.43896484375 0 30.016845703125 0 Z"/></g></svg>