<svg xmlns="http://www.w3.org/2000/svg" xmlns:xlink="http://www.w3.org/1999/xlink" width="1786.935" height="525.5" viewBox="0 0 1786.935 525.5"><defs><style>.a{fill:#fff3c6;}.b,.c{stroke:none;}.c{fill:#000;}.d{filter:url(#a);}</style><filter id="a" x="0" y="0" width="1786.935" height="525.5" filterUnits="userSpaceOnUse"><feOffset dx="10" dy="10" input="SourceAlpha"/><feGaussianBlur result="b"/><feFlood flood-color="#1f0303"/><feComposite operator="in" in2="b"/><feComposite in="SourceGraphic"/></filter></defs><g class="d" transform="matrix(1, 0, 0, 1, 0, 0)"><g class="a"><path class="b" d="M 1746.9189453125 513.00048828125 L 1172.61669921875 513.00048828125 L 30.0158863067627 513.00048828125 C 26.31740760803223 513.00048828125 22.7293643951416 512.2356567382812 19.35175514221191 510.7274169921875 C 16.07849502563477 509.2656860351562 13.13632011413574 507.1702575683594 10.60653781890869 504.4993896484375 C 8.067625045776367 501.8189392089844 6.073493957519531 498.6954650878906 4.679581165313721 495.2156677246094 C 3.233276844024658 491.6056823730469 2.5000159740448 487.76806640625 2.5000159740448 483.809814453125 L 2.5000159740448 31.6906795501709 C 2.5000159740448 27.73241806030273 3.233276844024658 23.89480972290039 4.679581165313721 20.28480911254883 C 6.073493957519531 16.80502700805664 8.067625045776367 13.68154811859131 10.60653781890869 11.00111389160156 C 13.13632011413574 8.330244064331055 16.07849502563477 6.234809398651123 19.35175514221191 4.773070335388184 C 22.7293643951416 3.264809370040894 26.31740760803223 2.500026702880859 30.0158863067627 2.500026702880859 L 1746.9189453125 2.500026702880859 C 1750.617431640625 2.500026702880859 1754.205444335938 3.264809370040894 1757.5830078125 4.773070335388184 C 1760.856323242188 6.234809398651123 1763.798461914062 8.330244064331055 1766.328247070312 11.00111389160156 C 1768.8671875 13.68154811859131 1770.861328125 16.80502700805664 1772.255249023438 20.28480911254883 C 1773.701538085938 23.89480972290039 1774.434814453125 27.73241806030273 1774.434814453125 31.6906795501709 L 1774.434814453125 483.809814453125 C 1774.434814453125 487.76806640625 1773.701538085938 491.6056823730469 1772.255249023438 495.2156677246094 C 1770.861328125 498.6954650878906 1768.8671875 501.8189392089844 1766.328247070312 504.4993896484375 C 1763.798461914062 507.1702575683594 1760.856323242188 509.2656860351562 1757.5830078125 510.7274169921875 C 1754.205444335938 512.2356567382812 1750.617431640625 513.00048828125 1746.9189453125 513.00048828125 Z"/><path class="c" d="M 30.015869140625 5.000030517578125 C 26.6707763671875 5.000030517578125 23.42578125 5.691619873046875 20.37109375 7.055938720703125 C 17.399169921875 8.382965087890625 14.7244873046875 10.28887939453125 12.4215087890625 12.72024536132812 C 10.100341796875 15.17092895507812 8.2764892578125 18.02886962890625 7.0001220703125 21.21456909179688 C 5.6728515625 24.52774047851562 4.9998779296875 28.05227661132812 4.9998779296875 31.69070434570312 L 4.9998779296875 483.8097839355469 C 4.9998779296875 487.4482116699219 5.6728515625 490.9727478027344 7.0001220703125 494.2859191894531 C 8.2764892578125 497.4716186523438 10.100341796875 500.3295593261719 12.4215087890625 502.7802429199219 C 14.7244873046875 505.2116088867188 17.399169921875 507.1175231933594 20.37109375 508.4445495605469 C 23.42578125 509.8088684082031 26.6707763671875 510.5004577636719 30.015869140625 510.5004577636719 L 1746.9189453125 510.5004577636719 C 1750.264038085938 510.5004577636719 1753.509033203125 509.8088684082031 1756.563720703125 508.4445495605469 C 1759.53564453125 507.1175231933594 1762.210083007812 505.2116088867188 1764.513061523438 502.7802429199219 C 1766.834228515625 500.3295593261719 1768.658325195312 497.4716186523438 1769.934448242188 494.2859191894531 C 1771.26171875 490.9727478027344 1771.934692382812 487.4482116699219 1771.934692382812 483.8097839355469 L 1771.934692382812 31.69070434570312 C 1771.934692382812 28.05227661132812 1771.26171875 24.52774047851562 1769.934448242188 21.21456909179688 C 1768.658325195312 18.02886962890625 1766.834228515625 15.17092895507812 1764.513061523438 12.72024536132812 C 1762.210083007812 10.28887939453125 1759.53564453125 8.382965087890625 1756.563720703125 7.055938720703125 C 1753.509033203125 5.691619873046875 1750.264038085938 5.000030517578125 1746.9189453125 5.000030517578125 L 30.015869140625 5.000030517578125 M 30.015869140625 0 L 1746.9189453125 0 C 1763.496215820312 0 1776.934692382812 14.18841552734375 1776.934692382812 31.69070434570312 L 1776.934692382812 483.8097839355469 C 1776.934692382812 501.3120727539062 1763.496215820312 515.50048828125 1746.9189453125 515.50048828125 L 30.015869140625 515.50048828125 C 13.4385986328125 515.50048828125 -0.0001220703125 501.3120727539062 -0.0001220703125 483.8097839355469 L -0.0001220703125 31.69070434570312 C -0.0001220703125 14.18841552734375 13.4385986328125 0 30.015869140625 0 Z"/></g></g></svg>