<svg xmlns="http://www.w3.org/2000/svg" width="118.702" height="24.24" viewBox="0 0 118.702 24.24"><defs><style>.a{fill:#ffe622;stroke:#dec60a;}.b{fill:#d9d9d9;}</style></defs><g transform="translate(0.516 0.5)"><path class="a" d="M31.162.795l-2.916,6-6.523.966a1.458,1.458,0,0,0-.79,2.476l4.719,4.67-1.116,6.6a1.433,1.433,0,0,0,2.072,1.528l5.836-3.115,5.836,3.115a1.434,1.434,0,0,0,2.072-1.528l-1.116-6.6,4.719-4.67a1.458,1.458,0,0,0-.79-2.476L36.64,6.8l-2.916-6A1.42,1.42,0,0,0,31.162.795Z" transform="translate(-20.5 0.013)"/><path class="a" d="M31.162.795l-2.916,6-6.523.966a1.458,1.458,0,0,0-.79,2.476l4.719,4.67-1.116,6.6a1.433,1.433,0,0,0,2.072,1.528l5.836-3.115,5.836,3.115a1.434,1.434,0,0,0,2.072-1.528l-1.116-6.6,4.719-4.67a1.458,1.458,0,0,0-.79-2.476L36.64,6.8l-2.916-6A1.42,1.42,0,0,0,31.162.795Z" transform="translate(10.329 0.013)"/><path class="a" d="M31.162.795l-2.916,6-6.523.966a1.458,1.458,0,0,0-.79,2.476l4.719,4.67-1.116,6.6a1.433,1.433,0,0,0,2.072,1.528l5.836-3.115,5.836,3.115a1.434,1.434,0,0,0,2.072-1.528l-1.116-6.6,4.719-4.67a1.458,1.458,0,0,0-.79-2.476L36.64,6.8l-2.916-6A1.42,1.42,0,0,0,31.162.795Z" transform="translate(42.971 0.013)"/><path class="b" d="M31.162.795l-2.916,6-6.523.966a1.458,1.458,0,0,0-.79,2.476l4.719,4.67-1.116,6.6a1.433,1.433,0,0,0,2.072,1.528l5.836-3.115,5.836,3.115a1.434,1.434,0,0,0,2.072-1.528l-1.116-6.6,4.719-4.67a1.458,1.458,0,0,0-.79-2.476L36.64,6.8l-2.916-6A1.42,1.42,0,0,0,31.162.795Z" transform="translate(73.799 0.013)"/></g></svg>